<svg xmlns="http://www.w3.org/2000/svg" viewBox="0 0 640 160" role="img" aria-labelledby="t d"><title id="t">Paddock Command</title><desc id="d">Paddock Command wordmark with PC command mark</desc><defs><linearGradient id="g" x1="0" x2="1"><stop stop-color="#4ca7ff"/><stop offset="1" stop-color="#8fd3ff"/></linearGradient></defs><rect width="640" height="160" rx="24" fill="#06101f"/><rect x="18" y="18" width="124" height="124" rx="24" fill="#0b233a" stroke="#66bdff" stroke-width="3"/><path d="M43 111V48h31c24 0 38 12 38 31 0 20-15 32-40 32H58V94h14c14 0 21-5 21-15 0-9-7-14-20-14H61v46z" fill="url(#g)"/><path d="M117 56c-6-7-15-11-26-11-23 0-39 15-39 36 0 21 16 36 40 36 11 0 20-4 26-11l-10-12c-4 4-9 6-15 6-13 0-22-8-22-19s9-19 22-19c6 0 11 2 15 6z" fill="#e7f6ff" opacity=".92"/><text x="170" y="76" fill="#edf8ff" font-family="Arial,Helvetica,sans-serif" font-size="44" font-weight="900" letter-spacing="6">PADDOCK</text><text x="170" y="122" fill="url(#g)" font-family="Arial,Helvetica,sans-serif" font-size="38" font-weight="900" font-style="italic" letter-spacing="11">COMMAND</text></svg>